<?xml version="1.0" encoding="UTF-8"?>
<svg width="2562px" height="588px" viewBox="0 0 2562 588" version="1.1" xmlns="http://www.w3.org/2000/svg" xmlns:xlink="http://www.w3.org/1999/xlink">
    <!-- Generator: Sketch 52.5 (67469) - http://www.bohemiancoding.com/sketch -->
    <title>Group 3 Copy</title>
    <desc>Created with Sketch.</desc>
    <defs>
        <path d="M246.609969,12.8504874 L397.032672,100.277342 C410.584313,108.153662 418.922703,122.644467 418.922703,138.318757 L418.922703,313.681243 C418.922703,329.355533 410.584313,343.846338 397.032672,351.722658 L246.609969,439.149513 C232.940539,447.094292 216.059461,447.094292 202.390031,439.149513 L51.9673279,351.722658 C38.4156869,343.846338 30.0772969,329.355533 30.0772969,313.681243 L30.0772969,138.318757 C30.0772969,122.644467 38.4156869,108.153662 51.9673279,100.277342 L202.390031,12.8504874 C216.059461,4.90570769 232.940539,4.90570769 246.609969,12.8504874 Z" id="path-1"></path>
        <path d="M2.59477717,78.6059367 L109.629663,0 L266,114.522584 L158.69669,192 L94.6597831,192 L2.0836532,82.965616 C1.01128764,81.7026045 1.16583672,79.8094073 2.42884824,78.7370417 C2.48259993,78.6914036 2.53794395,78.6476748 2.59477717,78.6059367 Z" id="path-3"></path>
        <path d="M3.49428507,133.53453 L183.339844,0.89453125 L443.542969,192.273438 L264.988281,321.746094 L158.429688,321.746094 L2.98399784,137.885808 C1.9142807,136.620552 2.07279578,134.727683 3.33805119,133.657966 C3.38874901,133.615103 3.44085566,133.573935 3.49428507,133.53453 Z" id="path-5"></path>
    </defs>
    <g id="Page-1" stroke="none" stroke-width="1" fill="none" fill-rule="evenodd">
        <g id="Group-3-Copy" transform="translate(-40.000000, -12.000000)">
            <g id="Group-2">
                <path d="M343.746354,23.4276457 L526.585064,129.859163 C551.198224,144.186632 566.33871,170.51884 566.33871,198.998377 L566.33871,413.001623 C566.33871,441.48116 551.198224,467.813368 526.585064,482.140837 L343.746354,588.572354 C318.869362,603.053402 288.130638,603.053402 263.253646,588.572354 L80.4149358,482.140837 C55.8017756,467.813368 40.66129,441.48116 40.66129,413.001623 L40.66129,198.998377 C40.66129,170.51884 55.8017756,144.186632 80.4149358,129.859163 L263.253646,23.4276457 C288.130638,8.94659836 318.869362,8.94659836 343.746354,23.4276457 Z" id="Polygon" fill="#704742" fill-rule="nonzero"></path>
                <path d="M339.653372,61.9919817 L495.851066,152.686125 C518.041471,165.570693 531.697694,189.291337 531.697694,214.951153 L531.697694,397.048847 C531.697694,422.708663 518.041471,446.429307 495.851066,459.313875 L339.653372,550.008018 C317.298673,562.987981 289.701327,562.987981 267.346628,550.008018 L111.148934,459.313875 C88.9585285,446.429307 75.3023061,422.708663 75.3023061,397.048847 L75.3023061,214.951153 C75.3023061,189.291337 88.9585285,165.570693 111.148934,152.686125 L267.346628,61.9919817 C289.701327,49.0120187 317.298673,49.0120187 339.653372,61.9919817 Z" id="Polygon-Copy" fill="#FFFFFF" fill-rule="nonzero"></path>
                <path d="M325.609969,92.8504874 L476.032672,180.277342 C489.584313,188.153662 497.922703,202.644467 497.922703,218.318757 L497.922703,393.681243 C497.922703,409.355533 489.584313,423.846338 476.032672,431.722658 L325.609969,519.149513 C311.940539,527.094292 295.059461,527.094292 281.390031,519.149513 L130.967328,431.722658 C117.415687,423.846338 109.077297,409.355533 109.077297,393.681243 L109.077297,218.318757 C109.077297,202.644467 117.415687,188.153662 130.967328,180.277342 L281.390031,92.8504874 C295.059461,84.9057077 311.940539,84.9057077 325.609969,92.8504874 Z" id="Polygon-Copy-2" fill="#E4673B" fill-rule="nonzero"></path>
                <g id="Group" transform="translate(79.000000, 80.000000)">
                    <mask id="mask-2" fill="white">
                        <use xlink:href="#path-1"></use>
                    </mask>
                    <g id="Polygon-Copy-3" fill-rule="nonzero"></g>
                    <g id="Path-2" mask="url(#mask-2)">
                        <g transform="translate(222.000000, 194.000000)">
                            <mask id="mask-4" fill="white">
                                <use xlink:href="#path-3"></use>
                            </mask>
                            <use id="Mask" stroke="none" fill="#E39658" fill-rule="nonzero" xlink:href="#path-3"></use>
                            <path d="M108.559557,-0.662691922 C117.185102,6.84380662 143.339844,31.3164063 115.955078,46.6113281 C88.5703125,61.90625 105.357757,90.8073817 142.988281,98.7929688 C180.618805,106.778556 199.388628,101.413474 203.566406,121.546875 C206.351592,134.969143 223.16279,126.953584 254,97.5002008 L119.104368,-9 C106.324131,-8.44612698 102.809194,-5.66702428 108.559557,-0.662691922 Z" id="Path-2" stroke="none" fill="#663F3A" fill-rule="nonzero" mask="url(#mask-4)"></path>
                        </g>
                    </g>
                    <g id="Path-2" mask="url(#mask-2)">
                        <g transform="translate(-2.000000, 173.000000)">
                            <mask id="mask-6" fill="white">
                                <use xlink:href="#path-5"></use>
                            </mask>
                            <use id="Mask" stroke="none" fill="#E39658" fill-rule="nonzero" xlink:href="#path-5"></use>
                            <path d="M181.947266,0.89453125 C196.298828,13.4414063 229.371094,57.4609375 167.882813,93.3964844 C106.394531,129.332031 119.199219,179.919922 181.810547,193.267578 C244.421875,206.615234 262.294922,225.425781 269.246094,259.078125 C273.880208,281.513021 325.44401,250.14388 423.9375,164.970703 L199.492188,-13.0410156 C178.227865,-12.1152344 172.379557,-7.47005208 181.947266,0.89453125 Z" id="Path-2" stroke="none" fill="#704742" fill-rule="nonzero" mask="url(#mask-6)"></path>
                        </g>
                    </g>
                </g>
                <circle id="Oval" fill="#FABD00" fill-rule="nonzero" cx="359" cy="200" r="31"></circle>
            </g>
            <path d="M669.56,354.24 C660.493288,354.24 651.693376,353.120011 643.16,350.88 C634.626624,348.639989 627.69336,345.653352 622.36,341.92 L632.76,318.56 C637.773358,321.866683 643.586634,324.533323 650.2,326.56 C656.813366,328.586677 663.319968,329.6 669.72,329.6 C681.880061,329.6 687.96,326.56003 687.96,320.48 C687.96,317.279984 686.226684,314.906674 682.76,313.36 C679.293316,311.813326 673.720038,310.186675 666.04,308.48 C657.613291,306.666658 650.573362,304.72001 644.92,302.64 C639.266638,300.55999 634.413354,297.22669 630.36,292.64 C626.306646,288.05331 624.28,281.866706 624.28,274.08 C624.28,267.253299 626.146648,261.093361 629.88,255.6 C633.613352,250.106639 639.18663,245.760016 646.6,242.56 C654.01337,239.359984 663.106613,237.76 673.88,237.76 C681.240037,237.76 688.493298,238.586658 695.64,240.24 C702.786702,241.893342 709.079973,244.319984 714.52,247.52 L704.76,271.04 C694.09328,265.279971 683.746717,262.4 673.72,262.4 C667.426635,262.4 662.840014,263.333324 659.96,265.2 C657.079986,267.066676 655.64,269.493318 655.64,272.48 C655.64,275.466682 657.34665,277.706659 660.76,279.2 C664.17335,280.693341 669.666629,282.239992 677.24,283.84 C685.773376,285.653342 692.839972,287.59999 698.44,289.68 C704.040028,291.76001 708.893313,295.066644 713,299.6 C717.106687,304.133356 719.16,310.293294 719.16,318.08 C719.16,324.800034 717.293352,330.879973 713.56,336.32 C709.826648,341.760027 704.226704,346.10665 696.76,349.36 C689.293296,352.61335 680.22672,354.24 669.56,354.24 Z M809.76,330.24 L762.4,330.24 L753.6,352 L721.28,352 L770.72,240 L801.92,240 L851.52,352 L818.56,352 L809.76,330.24 Z M800.48,306.88 L786.08,271.04 L771.68,306.88 L800.48,306.88 Z M968.04,240 L968.04,352 L936.36,352 L936.36,308.32 L893.16,308.32 L893.16,352 L861.48,352 L861.48,240 L893.16,240 L893.16,282.08 L936.36,282.08 L936.36,240 L968.04,240 Z M1066.48,330.24 L1019.12,330.24 L1010.32,352 L978,352 L1027.44,240 L1058.64,240 L1108.24,352 L1075.28,352 L1066.48,330.24 Z M1057.2,306.88 L1042.8,271.04 L1028.4,306.88 L1057.2,306.88 Z M1167.16,322.24 L1149.88,322.24 L1149.88,352 L1118.2,352 L1118.2,240 L1169.4,240 C1179.53338,240 1188.3333,241.679983 1195.8,245.04 C1203.2667,248.400017 1209.02665,253.199969 1213.08,259.44 C1217.13335,265.680031 1219.16,273.013291 1219.16,281.44 C1219.16,289.546707 1217.26669,296.613303 1213.48,302.64 C1209.69331,308.666697 1204.28004,313.38665 1197.24,316.8 L1221.4,352 L1187.48,352 L1167.16,322.24 Z M1187.16,281.44 C1187.16,276.213307 1185.50668,272.160014 1182.2,269.28 C1178.89332,266.399986 1173.9867,264.96 1167.48,264.96 L1149.88,264.96 L1149.88,297.76 L1167.48,297.76 C1173.9867,297.76 1178.89332,296.346681 1182.2,293.52 C1185.50668,290.693319 1187.16,286.666693 1187.16,281.44 Z M1312.64,330.24 L1265.28,330.24 L1256.48,352 L1224.16,352 L1273.6,240 L1304.8,240 L1354.4,352 L1321.44,352 L1312.64,330.24 Z M1303.36,306.88 L1288.96,271.04 L1274.56,306.88 L1303.36,306.88 Z M1411.92,240 L1464.88,240 C1477.14673,240 1488.02662,242.29331 1497.52,246.88 C1507.01338,251.46669 1514.37331,257.973291 1519.6,266.4 C1524.82669,274.826709 1527.44,284.693277 1527.44,296 C1527.44,307.306723 1524.82669,317.173291 1519.6,325.6 C1514.37331,334.026709 1507.01338,340.53331 1497.52,345.12 C1488.02662,349.70669 1477.14673,352 1464.88,352 L1411.92,352 L1411.92,240 Z M1463.6,326.72 C1473.20005,326.72 1480.90664,324.000027 1486.72,318.56 C1492.53336,313.119973 1495.44,305.600048 1495.44,296 C1495.44,286.399952 1492.53336,278.880027 1486.72,273.44 C1480.90664,267.999973 1473.20005,265.28 1463.6,265.28 L1443.6,265.28 L1443.6,326.72 L1463.6,326.72 Z M1635,327.52 L1635,352 L1545.08,352 L1545.08,240 L1632.92,240 L1632.92,264.48 L1576.44,264.48 L1576.44,283.36 L1626.2,283.36 L1626.2,307.04 L1576.44,307.04 L1576.44,327.52 L1635,327.52 Z M1692.96,354.24 C1683.89329,354.24 1675.09338,353.120011 1666.56,350.88 C1658.02662,348.639989 1651.09336,345.653352 1645.76,341.92 L1656.16,318.56 C1661.17336,321.866683 1666.98663,324.533323 1673.6,326.56 C1680.21337,328.586677 1686.71997,329.6 1693.12,329.6 C1705.28006,329.6 1711.36,326.56003 1711.36,320.48 C1711.36,317.279984 1709.62668,314.906674 1706.16,313.36 C1702.69332,311.813326 1697.12004,310.186675 1689.44,308.48 C1681.01329,306.666658 1673.97336,304.72001 1668.32,302.64 C1662.66664,300.55999 1657.81335,297.22669 1653.76,292.64 C1649.70665,288.05331 1647.68,281.866706 1647.68,274.08 C1647.68,267.253299 1649.54665,261.093361 1653.28,255.6 C1657.01335,250.106639 1662.58663,245.760016 1670,242.56 C1677.41337,239.359984 1686.50661,237.76 1697.28,237.76 C1704.64004,237.76 1711.8933,238.586658 1719.04,240.24 C1726.1867,241.893342 1732.47997,244.319984 1737.92,247.52 L1728.16,271.04 C1717.49328,265.279971 1707.14672,262.4 1697.12,262.4 C1690.82664,262.4 1686.24001,263.333324 1683.36,265.2 C1680.47999,267.066676 1679.04,269.493318 1679.04,272.48 C1679.04,275.466682 1680.74665,277.706659 1684.16,279.2 C1687.57335,280.693341 1693.06663,282.239992 1700.64,283.84 C1709.17338,285.653342 1716.23997,287.59999 1721.84,289.68 C1727.44003,291.76001 1732.29331,295.066644 1736.4,299.6 C1740.50669,304.133356 1742.56,310.293294 1742.56,318.08 C1742.56,324.800034 1740.69335,330.879973 1736.96,336.32 C1733.22665,341.760027 1727.6267,346.10665 1720.16,349.36 C1712.6933,352.61335 1703.62672,354.24 1692.96,354.24 Z M1848.04,327.52 L1848.04,352 L1758.12,352 L1758.12,240 L1845.96,240 L1845.96,264.48 L1789.48,264.48 L1789.48,283.36 L1839.24,283.36 L1839.24,307.04 L1789.48,307.04 L1789.48,327.52 L1848.04,327.52 Z M1915.6,322.24 L1898.32,322.24 L1898.32,352 L1866.64,352 L1866.64,240 L1917.84,240 C1927.97338,240 1936.7733,241.679983 1944.24,245.04 C1951.7067,248.400017 1957.46665,253.199969 1961.52,259.44 C1965.57335,265.680031 1967.6,273.013291 1967.6,281.44 C1967.6,289.546707 1965.70669,296.613303 1961.92,302.64 C1958.13331,308.666697 1952.72004,313.38665 1945.68,316.8 L1969.84,352 L1935.92,352 L1915.6,322.24 Z M1935.6,281.44 C1935.6,276.213307 1933.94668,272.160014 1930.64,269.28 C1927.33332,266.399986 1922.4267,264.96 1915.92,264.96 L1898.32,264.96 L1898.32,297.76 L1915.92,297.76 C1922.4267,297.76 1927.33332,296.346681 1930.64,293.52 C1933.94668,290.693319 1935.6,286.666693 1935.6,281.44 Z M2008.28,265.12 L1973.88,265.12 L1973.88,240 L2074.2,240 L2074.2,265.12 L2039.96,265.12 L2039.96,352 L2008.28,352 L2008.28,265.12 Z M2158.44,265.12 L2124.04,265.12 L2124.04,240 L2224.36,240 L2224.36,265.12 L2190.12,265.12 L2190.12,352 L2158.44,352 L2158.44,265.12 Z M2292.08,354.24 C2280.23994,354.24 2269.60005,351.733358 2260.16,346.72 C2250.71995,341.706642 2243.30669,334.773378 2237.92,325.92 C2232.53331,317.066622 2229.84,307.093389 2229.84,296 C2229.84,284.906611 2232.53331,274.933378 2237.92,266.08 C2243.30669,257.226622 2250.71995,250.293358 2260.16,245.28 C2269.60005,240.266642 2280.23994,237.76 2292.08,237.76 C2303.92006,237.76 2314.55995,240.266642 2324,245.28 C2333.44005,250.293358 2340.85331,257.226622 2346.24,266.08 C2351.62669,274.933378 2354.32,284.906611 2354.32,296 C2354.32,307.093389 2351.62669,317.066622 2346.24,325.92 C2340.85331,334.773378 2333.44005,341.706642 2324,346.72 C2314.55995,351.733358 2303.92006,354.24 2292.08,354.24 Z M2292.08,328 C2297.73336,328 2302.85331,326.66668 2307.44,324 C2312.02669,321.33332 2315.65332,317.573358 2318.32,312.72 C2320.98668,307.866642 2322.32,302.293365 2322.32,296 C2322.32,289.706635 2320.98668,284.133358 2318.32,279.28 C2315.65332,274.426642 2312.02669,270.66668 2307.44,268 C2302.85331,265.33332 2297.73336,264 2292.08,264 C2286.42664,264 2281.30669,265.33332 2276.72,268 C2272.13331,270.66668 2268.50668,274.426642 2265.84,279.28 C2263.17332,284.133358 2261.84,289.706635 2261.84,296 C2261.84,302.293365 2263.17332,307.866642 2265.84,312.72 C2268.50668,317.573358 2272.13331,321.33332 2276.72,324 C2281.30669,326.66668 2286.42664,328 2292.08,328 Z M2423.64,354.24 C2406.99992,354.24 2394.06671,349.706712 2384.84,340.64 C2375.61329,331.573288 2371,318.720083 2371,302.08 L2371,240 L2402.68,240 L2402.68,301.12 C2402.68,319.04009 2409.77326,328 2423.96,328 C2438.04007,328 2445.08,319.04009 2445.08,301.12 L2445.08,240 L2476.28,240 L2476.28,302.08 C2476.28,318.720083 2471.66671,331.573288 2462.44,340.64 C2453.21329,349.706712 2440.28008,354.24 2423.64,354.24 Z M2547.68,322.24 L2530.4,322.24 L2530.4,352 L2498.72,352 L2498.72,240 L2549.92,240 C2560.05338,240 2568.8533,241.679983 2576.32,245.04 C2583.7867,248.400017 2589.54665,253.199969 2593.6,259.44 C2597.65335,265.680031 2599.68,273.013291 2599.68,281.44 C2599.68,289.546707 2597.78669,296.613303 2594,302.64 C2590.21331,308.666697 2584.80004,313.38665 2577.76,316.8 L2601.92,352 L2568,352 L2547.68,322.24 Z M2567.68,281.44 C2567.68,276.213307 2566.02668,272.160014 2562.72,269.28 C2559.41332,266.399986 2554.5067,264.96 2548,264.96 L2530.4,264.96 L2530.4,297.76 L2548,297.76 C2554.5067,297.76 2559.41332,296.346681 2562.72,293.52 C2566.02668,290.693319 2567.68,286.666693 2567.68,281.44 Z" id="SAHARA-DESERT-TOUR" fill="#704742"></path>
        </g>
    </g>
</svg>